<svg t="1662674813901" class="icon" viewBox="0 0 1024 1024" version="1.1" xmlns="http://www.w3.org/2000/svg" p-id="3679" width="200" height="200"><path d="M884.1 282.4L542.5 85a60 60 0 0 0-60.1 0.1L140.9 283.8a39.9 39.9 0 0 0-16.3 18.2 40.2 40.2 0 0 0-7.6 23.2l-1 366.9a60 60 0 0 0 30 52.1l341.5 197.4a39.8 39.8 0 0 0 20 5.4 29.7 29.7 0 0 0 4.2-0.3 24.8 24.8 0 0 0 3.8 0.2 39.9 39.9 0 0 0 20.1-5.4l341.5-198.7a60.1 60.1 0 0 0 29.9-51.7l1-366.9a40.6 40.6 0 0 0-7.4-23.3 40.5 40.5 0 0 0-16.5-18.5zM512.5 150.9l287.8 166.3-115.3 67-286.8-166.8z m-36.4 538.4l-0.4 162.3L188 685.4l0.9-304.7 190.2 109.9 97.4 56.3z m36.4-204.7L224.8 318.3l109.8-63.9 286.7 166.9-8.6 5zM835 684.1L547.7 851.2l0.6-219 0.2-85.3 119.1-69.2-0.4 118.8a4 4 0 0 0 6 3.5l56.1-32.7a3.8 3.8 0 0 0 2-3.4l0.4-123.5 104.1-60.6z" p-id="3680"></path></svg>
